<svg xmlns="http://www.w3.org/2000/svg" viewBox="0 0 32 32" fill="none">
  <defs>
    <linearGradient id="g" x1="0" y1="0" x2="32" y2="32" gradientUnits="userSpaceOnUse">
      <stop stop-color="#6366f1"/>
      <stop offset="1" stop-color="#7c3aed"/>
    </linearGradient>
  </defs>
  <rect width="32" height="32" rx="8" fill="url(#g)"/>
  <path d="M16 6C13 6 10.5 8 10 11c-.5 3 1 5.5 1 5.5s-2.5.5-2.5 3.5c0 2.5 2.5 3.5 4 3.5s2.5-1 3.5-1 2 1 3.5 1 4-1 4-3.5c0-3-2.5-3.5-2.5-3.5s1.5-2.5 1-5.5C21.5 8 19 6 16 6z" fill="rgba(255,255,255,0.95)"/>
  <circle cx="13" cy="13" r="1.2" fill="url(#g)"/>
  <circle cx="19" cy="13" r="1.2" fill="url(#g)"/>
</svg>